<svg width="25" height="25" viewBox="0 0 25 25" fill="none" xmlns="http://www.w3.org/2000/svg">
<g clip-path="url(#clip0_335_1469)">
<path d="M24.1865 22.286L18.4744 16.3452C19.9431 14.5993 20.7478 12.4026 20.7478 10.1158C20.7478 4.7728 16.4008 0.425781 11.0578 0.425781C5.71481 0.425781 1.3678 4.7728 1.3678 10.1158C1.3678 15.4587 5.71481 19.8058 11.0578 19.8058C13.0636 19.8058 14.9751 19.2008 16.6093 18.0523L22.3647 24.0382C22.6053 24.288 22.9289 24.4258 23.2756 24.4258C23.6038 24.4258 23.9151 24.3007 24.1515 24.0732C24.6537 23.5899 24.6697 22.7886 24.1865 22.286ZM11.0578 2.9536C15.0071 2.9536 18.22 6.16647 18.22 10.1158C18.22 14.0651 15.0071 17.2779 11.0578 17.2779C7.10848 17.2779 3.89562 14.0651 3.89562 10.1158C3.89562 6.16647 7.10848 2.9536 11.0578 2.9536Z" fill="#D3D3D3"/>
</g>
<defs>
<clipPath id="clip0_335_1469">
<rect width="24" height="24" fill="white" transform="translate(0.953125 0.425781)"/>
</clipPath>
</defs>
</svg>
