<svg width="133" height="241" viewBox="0 0 133 241" fill="none" xmlns="http://www.w3.org/2000/svg">
<g filter="url(#filter0_ddiii_415_2734)">
<path d="M123.105 45.8496C124.009 45.8496 124.742 46.5826 124.742 47.4868V57.9796C124.742 58.8838 124.009 59.6168 123.105 59.6168V45.8496Z" fill="url(#paint0_linear_415_2734)"/>
<path d="M123.541 66.5366C124.244 66.5366 124.814 67.1063 124.814 67.8091V77.884C124.814 78.5868 124.244 79.1565 123.541 79.1565V66.5366Z" fill="url(#paint1_linear_415_2734)"/>
<path d="M123.54 79.1562C124.243 79.1562 124.813 79.7259 124.813 80.4287V90.5037C124.813 91.2064 124.243 91.7761 123.54 91.7761V79.1562Z" fill="url(#paint2_linear_415_2734)"/>
<path fill-rule="evenodd" clip-rule="evenodd" d="M44.2415 10.8438C36.2056 10.8438 29.6912 17.3582 29.6912 25.3941V199.562C29.6912 207.598 36.2056 214.112 44.2415 214.112H108.991C117.027 214.112 123.541 207.598 123.541 199.562V25.3941C123.541 17.3582 117.027 10.8438 108.991 10.8438H44.2415ZM45.5764 16.4558C39.5092 16.4558 34.5909 21.3742 34.5909 27.4414V197.761C34.5909 203.829 39.5092 208.747 45.5764 208.747H107.655C113.722 208.747 118.64 203.829 118.64 197.761V27.4414C118.64 21.3742 113.722 16.4558 107.655 16.4558H97.0721V20.056C97.0721 22.065 95.4435 23.6936 93.4345 23.6936H89.628H63.6044H59.7979C57.7889 23.6936 56.1603 22.065 56.1603 20.056V16.4558H45.5764Z" fill="url(#paint3_linear_415_2734)"/>
</g>
<defs>
<filter id="filter0_ddiii_415_2734" x="0.893367" y="0.537941" width="131.668" height="239.814" filterUnits="userSpaceOnUse" color-interpolation-filters="sRGB">
<feFlood flood-opacity="0" result="BackgroundImageFix"/>
<feColorMatrix in="SourceAlpha" type="matrix" values="0 0 0 0 0 0 0 0 0 0 0 0 0 0 0 0 0 0 127 0" result="hardAlpha"/>
<feOffset dy="0.292363"/>
<feGaussianBlur stdDeviation="0.87709"/>
<feColorMatrix type="matrix" values="0 0 0 0 0.0784314 0 0 0 0 0.105882 0 0 0 0 0.160784 0 0 0 0.08 0"/>
<feBlend mode="normal" in2="BackgroundImageFix" result="effect1_dropShadow_415_2734"/>
<feColorMatrix in="SourceAlpha" type="matrix" values="0 0 0 0 0 0 0 0 0 0 0 0 0 0 0 0 0 0 127 0" result="hardAlpha"/>
<feOffset dx="-10.5251" dy="7.9669"/>
<feGaussianBlur stdDeviation="9.13636"/>
<feColorMatrix type="matrix" values="0 0 0 0 0.00443437 0 0 0 0 0.00171874 0 0 0 0 0.1375 0 0 0 0.1 0"/>
<feBlend mode="normal" in2="effect1_dropShadow_415_2734" result="effect2_dropShadow_415_2734"/>
<feBlend mode="normal" in="SourceGraphic" in2="effect2_dropShadow_415_2734" result="shape"/>
<feColorMatrix in="SourceAlpha" type="matrix" values="0 0 0 0 0 0 0 0 0 0 0 0 0 0 0 0 0 0 127 0" result="hardAlpha"/>
<feOffset dy="1.75418"/>
<feGaussianBlur stdDeviation="0.840545"/>
<feComposite in2="hardAlpha" operator="arithmetic" k2="-1" k3="1"/>
<feColorMatrix type="matrix" values="0 0 0 0 0.6125 0 0 0 0 0.6125 0 0 0 0 0.6125 0 0 0 0.16 0"/>
<feBlend mode="normal" in2="shape" result="effect3_innerShadow_415_2734"/>
<feColorMatrix in="SourceAlpha" type="matrix" values="0 0 0 0 0 0 0 0 0 0 0 0 0 0 0 0 0 0 127 0" result="hardAlpha"/>
<feOffset dy="-1.75418"/>
<feGaussianBlur stdDeviation="0.840545"/>
<feComposite in2="hardAlpha" operator="arithmetic" k2="-1" k3="1"/>
<feColorMatrix type="matrix" values="0 0 0 0 0.611765 0 0 0 0 0.611765 0 0 0 0 0.611765 0 0 0 0.16 0"/>
<feBlend mode="normal" in2="effect3_innerShadow_415_2734" result="effect4_innerShadow_415_2734"/>
<feColorMatrix in="SourceAlpha" type="matrix" values="0 0 0 0 0 0 0 0 0 0 0 0 0 0 0 0 0 0 127 0" result="hardAlpha"/>
<feOffset dx="0.292363" dy="0.292363"/>
<feGaussianBlur stdDeviation="0.913636"/>
<feComposite in2="hardAlpha" operator="arithmetic" k2="-1" k3="1"/>
<feColorMatrix type="matrix" values="0 0 0 0 0.85 0 0 0 0 0.85 0 0 0 0 0.85 0 0 0 0.7 0"/>
<feBlend mode="normal" in2="effect4_innerShadow_415_2734" result="effect5_innerShadow_415_2734"/>
</filter>
<linearGradient id="paint0_linear_415_2734" x1="124.504" y1="46.6547" x2="120.152" y2="48.6334" gradientUnits="userSpaceOnUse">
<stop stop-color="#737B87"/>
<stop offset="1" stop-color="#393E46"/>
</linearGradient>
<linearGradient id="paint1_linear_415_2734" x1="124.629" y1="67.2746" x2="121.075" y2="68.6444" gradientUnits="userSpaceOnUse">
<stop stop-color="#737B87"/>
<stop offset="1" stop-color="#393E46"/>
</linearGradient>
<linearGradient id="paint2_linear_415_2734" x1="124.628" y1="79.8942" x2="121.074" y2="81.264" gradientUnits="userSpaceOnUse">
<stop stop-color="#737B87"/>
<stop offset="1" stop-color="#393E46"/>
</linearGradient>
<linearGradient id="paint3_linear_415_2734" x1="109.906" y1="22.7302" x2="36.749" y2="151.852" gradientUnits="userSpaceOnUse">
<stop stop-color="#737B87"/>
<stop offset="1" stop-color="#393E46"/>
</linearGradient>
</defs>
</svg>
