<svg width="225" height="409" viewBox="0 0 225 409" fill="none" xmlns="http://www.w3.org/2000/svg">
<g filter="url(#filter0_ddiii_305_2327)">
<path d="M208.431 77.9775C209.968 77.9775 211.214 79.2235 211.214 80.7606V98.5964C211.214 100.133 209.968 101.379 208.431 101.379V77.9775Z" fill="url(#paint0_linear_305_2327)"/>
<path d="M209.173 113.142C210.367 113.142 211.336 114.11 211.336 115.305V132.43C211.336 133.625 210.367 134.593 209.173 134.593V113.142Z" fill="url(#paint1_linear_305_2327)"/>
<path d="M209.172 134.594C210.366 134.594 211.335 135.562 211.335 136.757V153.882C211.335 155.077 210.366 156.045 209.172 156.045V134.594Z" fill="url(#paint2_linear_305_2327)"/>
<path fill-rule="evenodd" clip-rule="evenodd" d="M74.377 18.4736C60.7172 18.4736 49.6438 29.547 49.6438 43.2068V339.263C49.6438 352.923 60.7172 363.996 74.377 363.996H184.44C198.099 363.996 209.173 352.923 209.173 339.263V43.2068C209.173 29.5471 198.099 18.4736 184.44 18.4736H74.377ZM76.6462 28.0131C66.3331 28.0131 57.9726 36.3736 57.9726 46.6867V336.202C57.9726 346.515 66.333 354.876 76.6462 354.876H182.169C192.482 354.876 200.843 346.515 200.843 336.202V46.6866C200.843 36.3735 192.482 28.0131 182.169 28.0131H164.18V34.1328C164.18 37.5477 161.411 40.3161 157.996 40.3161H151.527H107.29H100.82C97.4055 40.3161 94.6372 37.5477 94.6372 34.1328V28.0131H76.6462Z" fill="url(#paint3_linear_305_2327)"/>
</g>
<defs>
<filter id="filter0_ddiii_305_2327" x="0.69241" y="0.955497" width="223.813" height="407.644" filterUnits="userSpaceOnUse" color-interpolation-filters="sRGB">
<feFlood flood-opacity="0" result="BackgroundImageFix"/>
<feColorMatrix in="SourceAlpha" type="matrix" values="0 0 0 0 0 0 0 0 0 0 0 0 0 0 0 0 0 0 127 0" result="hardAlpha"/>
<feOffset dy="0.496968"/>
<feGaussianBlur stdDeviation="1.49091"/>
<feColorMatrix type="matrix" values="0 0 0 0 0.0784314 0 0 0 0 0.105882 0 0 0 0 0.160784 0 0 0 0.08 0"/>
<feBlend mode="normal" in2="BackgroundImageFix" result="effect1_dropShadow_305_2327"/>
<feColorMatrix in="SourceAlpha" type="matrix" values="0 0 0 0 0 0 0 0 0 0 0 0 0 0 0 0 0 0 127 0" result="hardAlpha"/>
<feOffset dx="-17.8909" dy="13.5424"/>
<feGaussianBlur stdDeviation="15.5303"/>
<feColorMatrix type="matrix" values="0 0 0 0 0.00443437 0 0 0 0 0.00171874 0 0 0 0 0.1375 0 0 0 0.1 0"/>
<feBlend mode="normal" in2="effect1_dropShadow_305_2327" result="effect2_dropShadow_305_2327"/>
<feBlend mode="normal" in="SourceGraphic" in2="effect2_dropShadow_305_2327" result="shape"/>
<feColorMatrix in="SourceAlpha" type="matrix" values="0 0 0 0 0 0 0 0 0 0 0 0 0 0 0 0 0 0 127 0" result="hardAlpha"/>
<feOffset dy="2.98181"/>
<feGaussianBlur stdDeviation="1.42878"/>
<feComposite in2="hardAlpha" operator="arithmetic" k2="-1" k3="1"/>
<feColorMatrix type="matrix" values="0 0 0 0 0.6125 0 0 0 0 0.6125 0 0 0 0 0.6125 0 0 0 0.16 0"/>
<feBlend mode="normal" in2="shape" result="effect3_innerShadow_305_2327"/>
<feColorMatrix in="SourceAlpha" type="matrix" values="0 0 0 0 0 0 0 0 0 0 0 0 0 0 0 0 0 0 127 0" result="hardAlpha"/>
<feOffset dy="-2.98181"/>
<feGaussianBlur stdDeviation="1.42878"/>
<feComposite in2="hardAlpha" operator="arithmetic" k2="-1" k3="1"/>
<feColorMatrix type="matrix" values="0 0 0 0 0.611765 0 0 0 0 0.611765 0 0 0 0 0.611765 0 0 0 0.16 0"/>
<feBlend mode="normal" in2="effect3_innerShadow_305_2327" result="effect4_innerShadow_305_2327"/>
<feColorMatrix in="SourceAlpha" type="matrix" values="0 0 0 0 0 0 0 0 0 0 0 0 0 0 0 0 0 0 127 0" result="hardAlpha"/>
<feOffset dx="0.496968" dy="0.496968"/>
<feGaussianBlur stdDeviation="1.55303"/>
<feComposite in2="hardAlpha" operator="arithmetic" k2="-1" k3="1"/>
<feColorMatrix type="matrix" values="0 0 0 0 0.85 0 0 0 0 0.85 0 0 0 0 0.85 0 0 0 0.7 0"/>
<feBlend mode="normal" in2="effect4_innerShadow_305_2327" result="effect5_innerShadow_305_2327"/>
</filter>
<linearGradient id="paint0_linear_305_2327" x1="210.81" y1="79.346" x2="203.411" y2="82.7095" gradientUnits="userSpaceOnUse">
<stop stop-color="#737B87"/>
<stop offset="1" stop-color="#393E46"/>
</linearGradient>
<linearGradient id="paint1_linear_305_2327" x1="211.021" y1="114.396" x2="204.98" y2="116.724" gradientUnits="userSpaceOnUse">
<stop stop-color="#737B87"/>
<stop offset="1" stop-color="#393E46"/>
</linearGradient>
<linearGradient id="paint2_linear_305_2327" x1="211.02" y1="135.848" x2="204.979" y2="138.177" gradientUnits="userSpaceOnUse">
<stop stop-color="#737B87"/>
<stop offset="1" stop-color="#393E46"/>
</linearGradient>
<linearGradient id="paint3_linear_305_2327" x1="185.995" y1="38.6786" x2="61.6409" y2="258.164" gradientUnits="userSpaceOnUse">
<stop stop-color="#737B87"/>
<stop offset="1" stop-color="#393E46"/>
</linearGradient>
</defs>
</svg>
